# xmcd
#
# Track frame offsets: 
#        150
#        18020
#        32025
#        35196
#        61442
#        81224
#        116553
#        135656
#        162540
#        176599
#        180099
#        203668
#        219416
#        222424
#        246894
#
# Disc length: 3461 seconds
#
# Revision: 1
# Processed by: cddbd v1.5.2PL0 Copyright (c) Steve Scherf et al.
# Submitted via: ExactAudioCopy v0.95a5
#
DISCID=d00d830f
DTITLE=Deb Callahan - Grace And Grit
DYEAR=2008
DGENRE=Blues
TTITLE0=Food On The Table
TTITLE1=Get It Right
TTITLE2=I Wish I Knew How It Would Feel To Be Free
TTITLE3=How Many Times
TTITLE4=Obstacle To Love
TTITLE5=Guilty
TTITLE6=Carry Me
TTITLE7=Insomniac Blues
TTITLE8=Hallelujah I Love Him So
TTITLE9=Dry Cleaners From Des Moines
TTITLE10=Happy Hour Girl
TTITLE11=No Taxi Driver
TTITLE12=Today I Sing The Blues
TTITLE13=Big Wide Space
TTITLE14=Work A Little Harder
EXTD=
EXTT0=
EXTT1=
EXTT2=
EXTT3=
EXTT4=
EXTT5=
EXTT6=
EXTT7=
EXTT8=
EXTT9=
EXTT10=
EXTT11=
EXTT12=
EXTT13=
EXTT14=
PLAYORDER=
